# xmcd
#
# Track frame offsets: 
#        150
#        11870
#        23783
#        36314
#        50186
#        62092
#        72829
#        85560
#        98500
#        112280
#        125632
#        138540
#        151549
#        164845
#        179063
#        191043
#        204536
#        216612
#
# Disc length: 3071 seconds
#
# Revision: 3
# Processed by: cddbd v1.5.2PL0 Copyright (c) Steve Scherf et al.
# Submitted via: ExactAudioCopy v0.95b2
#
DISCID=160bfd12
DTITLE=Bill Gaither - The Essential (Disk 1 of 2)
DYEAR=2001
DGENRE=Blues
TTITLE0=Naptown Stomp
TTITLE1=Pains In My Heart
TTITLE2=Tired of Your Line of Jive
TTITLE3='Leven Light City (with Frank Busby)
TTITLE4=Old Model 'A' Blues
TTITLE5=Triflin' Woman Blues
TTITLE6=Life of Leroy Carr
TTITLE7=Sunrise Blues
TTITLE8=I'm Wise To Your Line of Jive
TTITLE9=I Just Keep On Worryin'
TTITLE10=Boogie Woogie (with Honey Hill)
TTITLE11=Army Bound Blues
TTITLE12=That Will Never Do
TTITLE13=Georgia Woman Stomp (Carrying On Blues)
TTITLE14=Bad Luck Child
TTITLE15=After the Sun's Gone Down
TTITLE16=How Long Baby How Long
TTITLE17=Prisoner Bound (with Frank Busby)
EXTD=LABEL =Allegro Corporation\nID =cbl200018\nUPC =723724-057425\n
EXTD=COPYRIGHT =2001\n*****
EXTT0=
EXTT1=
EXTT2=
EXTT3=with Frank Busby
EXTT4=
EXTT5=
EXTT6=
EXTT7=
EXTT8=
EXTT9=
EXTT10=with Honey Hill
EXTT11=
EXTT12=
EXTT13=
EXTT14=
EXTT15=
EXTT16=
EXTT17=with Frank Busby
PLAYORDER=
